<?xml version="1.0" encoding="UTF-8" standalone="no"?>
<!-- Uploaded to: SVG Repo, www.svgrepo.com, Generator: SVG Repo Mixer Tools -->

<svg
   fill="#000000"
   height="825"
   width="825"
   version="1.1"
   id="Capa_1"
   viewBox="0 0 306.36375 306.36375"
   xml:space="preserve"
   sodipodi:docname="bishop-svgrepo-com.svg"
   inkscape:version="1.3.2 (091e20e, 2023-11-25, custom)"
   xmlns:inkscape="http://www.inkscape.org/namespaces/inkscape"
   xmlns:sodipodi="http://sodipodi.sourceforge.net/DTD/sodipodi-0.dtd"
   xmlns="http://www.w3.org/2000/svg"
   xmlns:svg="http://www.w3.org/2000/svg"><defs
   id="defs1" /><sodipodi:namedview
   id="namedview1"
   pagecolor="#ffffff"
   bordercolor="#000000"
   borderopacity="0.25"
   inkscape:showpageshadow="2"
   inkscape:pageopacity="0.0"
   inkscape:pagecheckerboard="0"
   inkscape:deskcolor="#d1d1d1"
   inkscape:zoom="1.42125"
   inkscape:cx="400"
   inkscape:cy="279.68338"
   inkscape:window-width="2560"
   inkscape:window-height="1351"
   inkscape:window-x="-9"
   inkscape:window-y="-9"
   inkscape:window-maximized="1"
   inkscape:current-layer="Capa_1" />
<g
   id="g1"
   style="stroke:#7e7e7e;stroke-width:7.427;stroke-dasharray:none;stroke-opacity:1"
   transform="translate(4.641875,4.641875)">
	<path
   d="m 206.873,255.08 h -3.41 c 2.214,-3.337 8.32,-14.536 -0.712,-25.6 -8.9,-10.905 -25.137,-39.546 -24.448,-64.4 h 3.57 c 4.418,0 7.667,-3.582 7.667,-8 v -1 c 0,-4.418 -3.249,-8 -7.667,-8 h -4.333 v -4.285 c 13,-8.971 20.511,-23.502 20.511,-39.914 0,-10.332 -7.011,-26.11 -15.819,-41.721 l -18.553,18.595 c -3.111,3.111 -8.182,3.111 -11.294,0.001 l -0.921,-0.933 c -3.111,-3.11 -3.106,-8.202 0.005,-11.313 l 21.676,-21.674 c -4.444,-7.069 -8.869,-13.678 -12.703,-19.224 2.881,-2.93 4.663,-6.944 4.663,-11.379 C 165.106,7.268 157.841,0 148.874,0 139.907,0 132.64,7.268 132.64,16.233 c 0,4.434 1.781,8.448 4.662,11.379 -14.585,21.101 -37.94,57.587 -37.94,76.269 0,16.853 8.178,31.724 21.178,40.625 v 3.574 h -4.667 c -4.418,0 -8.333,3.582 -8.333,8 v 1 c 0,4.418 3.915,8 8.333,8 h 3.571 c 0.689,24.855 -15.547,53.495 -24.448,64.4 -9.031,11.064 -2.926,22.263 -0.712,25.6 h -3.411 c -4.418,0 -8.333,3.582 -8.333,8 v 9 c 0,4.078 3,7.438 7,7.931 v 17.069 h 118 v -17.069 c 4,-0.493 7,-3.853 7,-7.931 v -9 c 0,-4.418 -3.249,-8 -7.667,-8 z"
   id="path1"
   style="stroke:#7e7e7e;stroke-width:7.427;stroke-dasharray:none;stroke-opacity:1" />
</g>
</svg>
