<?xml version="1.0" encoding="UTF-8" standalone="no"?>
<!-- Uploaded to: SVG Repo, www.svgrepo.com, Generator: SVG Repo Mixer Tools -->

<svg
   fill="#000000"
   height="825"
   width="825"
   version="1.1"
   id="Capa_1"
   viewBox="0 0 307.3125 307.3125"
   xml:space="preserve"
   sodipodi:docname="king-svgrepo-com.svg"
   inkscape:version="1.3.2 (091e20e, 2023-11-25, custom)"
   xmlns:inkscape="http://www.inkscape.org/namespaces/inkscape"
   xmlns:sodipodi="http://sodipodi.sourceforge.net/DTD/sodipodi-0.dtd"
   xmlns:xlink="http://www.w3.org/1999/xlink"
   xmlns="http://www.w3.org/2000/svg"
   xmlns:svg="http://www.w3.org/2000/svg"><defs
   id="defs1"><pattern
     inkscape:collect="always"
     xlink:href="#pattern6-7"
     preserveAspectRatio="xMidYMid"
     id="pattern2"
     patternTransform="translate(190,350)" /><pattern
     patternUnits="userSpaceOnUse"
     width="29"
     height="20"
     patternTransform="translate(190,350)"
     preserveAspectRatio="xMidYMid"
     style="fill:#000000"
     id="pattern6-7"
     inkscape:label=""
     inkscape:collect="always"
     inkscape:isstock="true"><path
       style="fill:none;stroke:#000000;stroke-width:10;stroke-linecap:butt;stroke-dasharray:none;paint-order:stroke markers fill;stop-color:#000000"
       d="M 0,5 C 19,5 10,15 29,15"
       id="path4-2"
       sodipodi:nodetypes="cc" /></pattern></defs><sodipodi:namedview
   id="namedview1"
   pagecolor="#ffffff"
   bordercolor="#000000"
   borderopacity="0.25"
   inkscape:showpageshadow="2"
   inkscape:pageopacity="0.0"
   inkscape:pagecheckerboard="0"
   inkscape:deskcolor="#d1d1d1"
   inkscape:zoom="0.710625"
   inkscape:cx="-116.09499"
   inkscape:cy="284.96042"
   inkscape:window-width="2560"
   inkscape:window-height="1351"
   inkscape:window-x="-9"
   inkscape:window-y="-9"
   inkscape:window-maximized="1"
   inkscape:current-layer="Capa_1" />
<g
   id="g1"
   style="fill:#000000;fill-opacity:1;stroke:#7d7d7d;stroke-width:7.45;stroke-linecap:round;stroke-dasharray:none;stroke-opacity:1"
   transform="translate(4.65525,4.65625)">
	<path
   d="m 197.333,256 h -1.641 c 1.878,-3.337 7.061,-14.536 -0.605,-25.6 -7.554,-10.905 -21.491,-39.547 -20.904,-64.401 4.409,-0.01 7.816,-3.587 7.816,-7.999 v -1 c 0,-4.418 -3.582,-8 -8,-8 4.418,0 8,-3.582 8,-8 v -1 c 0,-4.418 -3.249,-8 -7.667,-8 h -3.55 c -1.006,-16.142 1.307,-29.861 4.798,-40.724 1.121,-3.487 2.432,-6.186 3.752,-8.276 h 2 c 4.418,0 7.667,-3.582 7.667,-8 v -1 c 0,-4.343 -3.463,-7.87 -7.777,-7.988 C 179.087,52.771 169,42.203 156,39.363 V 27 h 12 V 12 H 156 V 0 h -15 v 12 h -12 v 15 h 12 V 39.595 C 129,42.745 119.197,53.107 117.112,66 h -0.779 C 111.915,66 108,69.582 108,74 v 1 c 0,4.418 3.915,8 8.333,8 h 3 c 1.32,2.091 2.631,4.789 3.752,8.276 3.491,10.862 5.804,24.582 4.798,40.724 h -4.55 c -4.418,0 -8.333,3.582 -8.333,8 v 1 c 0,4.418 3.582,8 8,8 -4.418,0 -8,3.582 -8,8 v 1 c 0,4.418 3.915,8 8.333,8 h 1.053 c 0.588,24.855 -13.183,53.495 -20.737,64.4 -7.664,11.063 -2.482,22.263 -0.604,25.6 h -1.711 c -4.418,0 -8.333,3.582 -8.333,8 v 9 c 0,3.727 3,6.849 6,7.737 V 298 h 100 v -17.263 c 4,-0.889 6,-4.011 6,-7.737 v -9 c -0.001,-4.418 -3.25,-8 -7.668,-8 z"
   id="path1"
   style="fill:#000000;fill-opacity:1;stroke:#7d7d7d;stroke-width:7.45;stroke-linecap:round;stroke-dasharray:none;stroke-opacity:1" />
</g>
</svg>
