<?xml version="1.0" encoding="UTF-8" standalone="no"?>
<!-- Uploaded to: SVG Repo, www.svgrepo.com, Generator: SVG Repo Mixer Tools -->

<svg
   fill="#000000"
   height="825"
   width="825"
   version="1.1"
   id="Capa_1"
   viewBox="0 0 307.3125 307.3125"
   xml:space="preserve"
   sodipodi:docname="knight-svgrepo-com.svg"
   inkscape:version="1.3.2 (091e20e, 2023-11-25, custom)"
   xmlns:inkscape="http://www.inkscape.org/namespaces/inkscape"
   xmlns:sodipodi="http://sodipodi.sourceforge.net/DTD/sodipodi-0.dtd"
   xmlns="http://www.w3.org/2000/svg"
   xmlns:svg="http://www.w3.org/2000/svg"><defs
   id="defs1" /><sodipodi:namedview
   id="namedview1"
   pagecolor="#ffffff"
   bordercolor="#000000"
   borderopacity="0.25"
   inkscape:showpageshadow="2"
   inkscape:pageopacity="0.0"
   inkscape:pagecheckerboard="0"
   inkscape:deskcolor="#d1d1d1"
   inkscape:zoom="1.42125"
   inkscape:cx="400"
   inkscape:cy="383.11346"
   inkscape:window-width="2560"
   inkscape:window-height="1351"
   inkscape:window-x="-9"
   inkscape:window-y="-9"
   inkscape:window-maximized="1"
   inkscape:current-layer="Capa_1" />
<g
   id="g1"
   style="stroke:#808080;stroke-width:7.45;stroke-dasharray:none;stroke-opacity:1"
   transform="translate(4.6569098,5.4791047)">
	<path
   d="m 210.952,116 c 14.912,0 27.037,-12.088 27.037,-27 0,-14.912 -10.945,-25.013 -26.964,-30.666 -11.333,-4 -18.018,-10.823 -23.009,-19.412 C 183.025,30.333 172.025,17 157.525,17 c -5.832,0 -19.798,0 -19.798,0 V 0 c -107,40.03 -72.369,184 -72.369,184 h 21.369 v 14 h -6.369 c -4.418,0 -8.631,3.582 -8.631,8 v 1 c 0,3.289 2.302,6.111 5.14,7.341 -8.77,15.05 -1.419,29.775 0.761,33.659 h -5.271 c -4.418,0 -8.631,3.582 -8.631,8 v 18 c 0,4.418 4,8 8,8 v 16 h 132 v -16.069 c 4,-0.493 7,-3.853 7,-7.931 v -18 c 0,-4.418 -2.951,-8 -7.369,-8 h -4.27 c 2.181,-3.884 8.902,-18.609 0.13,-33.659 2.838,-1.23 4.508,-4.052 4.508,-7.341 v -1 c 0,-4.418 -2.951,-8 -7.369,-8 h -7.631 v -14 h 24.132 c -16.501,-54 -66.334,-83 -66.334,-83 h 40.182 c 4.441,8.889 13.646,15 24.247,15 z"
   id="path1"
   style="stroke:#808080;stroke-width:7.45;stroke-dasharray:none;stroke-opacity:1" />
</g>
</svg>
