<?xml version="1.0" encoding="UTF-8" standalone="no"?>
<!-- Uploaded to: SVG Repo, www.svgrepo.com, Generator: SVG Repo Mixer Tools -->

<svg
   fill="#000000"
   height="825"
   width="825"
   version="1.1"
   id="Capa_1"
   viewBox="0 0 306.28125 306.28125"
   xml:space="preserve"
   sodipodi:docname="pawn-svgrepo-com.svg"
   inkscape:version="1.3.2 (091e20e, 2023-11-25, custom)"
   xmlns:inkscape="http://www.inkscape.org/namespaces/inkscape"
   xmlns:sodipodi="http://sodipodi.sourceforge.net/DTD/sodipodi-0.dtd"
   xmlns="http://www.w3.org/2000/svg"
   xmlns:svg="http://www.w3.org/2000/svg"><defs
   id="defs1" /><sodipodi:namedview
   id="namedview1"
   pagecolor="#ffffff"
   bordercolor="#000000"
   borderopacity="0.25"
   inkscape:showpageshadow="2"
   inkscape:pageopacity="0.0"
   inkscape:pagecheckerboard="0"
   inkscape:deskcolor="#d1d1d1"
   inkscape:zoom="0.710625"
   inkscape:cx="254.00176"
   inkscape:cy="429.90325"
   inkscape:window-width="2560"
   inkscape:window-height="1351"
   inkscape:window-x="-9"
   inkscape:window-y="-9"
   inkscape:window-maximized="1"
   inkscape:current-layer="Capa_1" />
<g
   id="g1"
   transform="translate(4.640625,4.640625)"
   style="stroke:#808080;stroke-opacity:1;stroke-width:7.425;stroke-dasharray:none;fill:#000000;fill-opacity:1">
	<path
   d="m 223.333,247 h -5.926 c 2.607,-3.811 10.798,-18.024 -0.727,-32.248 C 203.346,198.292 176.817,149.004 189.356,116 h 0.977 c 4.418,0 7.667,-3.582 7.667,-8 v -1 c 0,-4.418 -3.249,-8 -7.667,-8 h -1.225 c 10.917,-10.466 17.725,-25.184 17.725,-41.5 0,-31.756 -25.744,-57.5 -57.5,-57.5 -31.756,0 -57.5,25.744 -57.5,57.5 0,16.316 6.808,31.034 17.725,41.5 h -2.225 C 102.915,99 99,102.582 99,107 v 1 c 0,4.418 3.915,8 8.333,8 h 1.979 c 12.539,33.004 -13.99,82.292 -27.324,98.752 C 70.464,228.976 78.654,243.189 81.261,247 H 74.333 C 69.915,247 66,250.582 66,255 v 18 c 0,4.418 3.915,8 8.333,8 H 75 v 16 h 148 v -16 c 5,0 8,-3.582 8,-8 v -18 c 0,-4.418 -3.249,-8 -7.667,-8 z"
   id="path1"
   style="stroke:#808080;stroke-opacity:1;stroke-width:7.425;stroke-dasharray:none;fill:#000000;fill-opacity:1" />
</g>
</svg>
