<?xml version="1.0" encoding="UTF-8" standalone="no"?>
<!-- Uploaded to: SVG Repo, www.svgrepo.com, Generator: SVG Repo Mixer Tools -->

<svg
   fill="#000000"
   height="825"
   width="825"
   version="1.1"
   id="Capa_1"
   viewBox="0 0 307.07531 307.07531"
   xml:space="preserve"
   sodipodi:docname="queen-svgrepo-com.svg"
   inkscape:version="1.3.2 (091e20e, 2023-11-25, custom)"
   xmlns:inkscape="http://www.inkscape.org/namespaces/inkscape"
   xmlns:sodipodi="http://sodipodi.sourceforge.net/DTD/sodipodi-0.dtd"
   xmlns="http://www.w3.org/2000/svg"
   xmlns:svg="http://www.w3.org/2000/svg"><defs
   id="defs1" /><sodipodi:namedview
   id="namedview1"
   pagecolor="#ffffff"
   bordercolor="#000000"
   borderopacity="0.25"
   inkscape:showpageshadow="2"
   inkscape:pageopacity="0.0"
   inkscape:pagecheckerboard="0"
   inkscape:deskcolor="#d1d1d1"
   inkscape:zoom="1.42125"
   inkscape:cx="400"
   inkscape:cy="715.91909"
   inkscape:window-width="2560"
   inkscape:window-height="1351"
   inkscape:window-x="-9"
   inkscape:window-y="-9"
   inkscape:window-maximized="1"
   inkscape:current-layer="Capa_1" />
<g
   id="g1"
   style="fill:#000000;fill-opacity:1;stroke:#808080;stroke-width:7.44425;stroke-dasharray:none;stroke-opacity:1"
   transform="translate(4.651655,4.653155)">
	<path
   d="m 207.218,255.77 h -3.369 c 2.214,-3.337 8.32,-14.536 -0.712,-25.6 -8.9,-10.905 -25.129,-39.546 -24.438,-64.4 h 3.519 c 4.418,0 7.667,-3.582 7.667,-8 v -1 c 0,-4.418 -3.582,-8 -8,-8 4.418,0 8,-3.582 8,-8 v -1 c 0,-4.418 -3.249,-8 -7.667,-8 h -4.626 c -2.064,-21.741 1.078,-43.054 5.959,-54.666 1.86,-4.425 4.118,-7.79 6.296,-10.334 h 1.371 c 4.418,0 7.667,-3.582 7.667,-8 v -1 c 0,-4.418 -3.249,-8 -7.667,-8 h -9.8 C 179.615,38.874 172.42,29.804 162.663,25.387 164.446,22.78 165.492,19.63 165.492,16.233 165.492,7.267 158.227,0 149.26,0 c -8.967,0 -16.234,7.267 -16.234,16.232 0,3.385 1.037,6.525 2.809,9.127 -9.788,4.406 -17.01,13.49 -18.816,24.41 h -10.8 c -4.418,0 -8.333,3.582 -8.333,8 v 1 c 0,4.418 3.915,8 8.333,8 h 2.371 c 2.178,2.544 4.436,5.909 6.296,10.334 4.881,11.612 8.023,32.925 5.959,54.666 h -4.626 c -4.418,0 -8.333,3.582 -8.333,8 v 1 c 0,4.418 3.582,8 8,8 -4.418,0 -8,3.582 -8,8 v 1 c 0,4.418 3.915,8 8.333,8 h 3.602 c 0.692,24.854 -15.536,53.495 -24.438,64.4 -9.031,11.063 -2.926,22.263 -0.712,25.6 h -3.452 c -4.418,0 -8.333,3.582 -8.333,8 v 9 c 0,4.078 3,7.438 7,7.931 v 17.069 h 118 V 280.7 c 4,-0.493 7,-3.853 7,-7.931 v -9 c -0.001,-4.417 -3.25,-7.999 -7.668,-7.999 z"
   id="path1"
   style="fill:#000000;fill-opacity:1;stroke:#808080;stroke-width:7.44425;stroke-dasharray:none;stroke-opacity:1" />
</g>
</svg>
