<?xml version="1.0" encoding="UTF-8" standalone="no"?>
<!-- Uploaded to: SVG Repo, www.svgrepo.com, Generator: SVG Repo Mixer Tools -->

<svg
   fill="#000000"
   height="825"
   width="825"
   version="1.1"
   id="Capa_1"
   viewBox="0 0 307.3125 307.3125"
   xml:space="preserve"
   sodipodi:docname="rook-svgrepo-com.svg"
   inkscape:version="1.3.2 (091e20e, 2023-11-25, custom)"
   xmlns:inkscape="http://www.inkscape.org/namespaces/inkscape"
   xmlns:sodipodi="http://sodipodi.sourceforge.net/DTD/sodipodi-0.dtd"
   xmlns="http://www.w3.org/2000/svg"
   xmlns:svg="http://www.w3.org/2000/svg"><defs
   id="defs1" /><sodipodi:namedview
   id="namedview1"
   pagecolor="#ffffff"
   bordercolor="#000000"
   borderopacity="0.25"
   inkscape:showpageshadow="2"
   inkscape:pageopacity="0.0"
   inkscape:pagecheckerboard="0"
   inkscape:deskcolor="#d1d1d1"
   inkscape:zoom="1.0049755"
   inkscape:cx="244.28456"
   inkscape:cy="305.9776"
   inkscape:window-width="2560"
   inkscape:window-height="1351"
   inkscape:window-x="-9"
   inkscape:window-y="-9"
   inkscape:window-maximized="1"
   inkscape:current-layer="Capa_1" />
<g
   id="g1"
   style="stroke:#7e7e7e;stroke-width:7.45;stroke-dasharray:none;stroke-opacity:1"
   transform="translate(4.65625,4.65625)">
	<path
   d="m 216.923,246.538 c 3.457,-6.556 9.963,-22.777 -1.666,-39.137 C 200.508,186.65 179.942,125 193.61,83 H 207 V 0 H 191 V 17 H 175 V 0 H 157 V 17 H 141 V 0 H 124 V 17 H 108 V 0 H 91 v 83 h 14.057 c 13.668,42 -6.98,103.65 -21.73,124.401 -11.629,16.359 -5.373,32.706 -1.916,39.262 C 77.347,247.044 74,250.337 74,254.5 v 18 c 0,4.418 3.915,8.5 8.333,8.5 H 83 v 17 h 132 v -17 h 1.333 c 4.418,0 7.667,-4.082 7.667,-8.5 v -18 c 0,-4.162 -3.014,-7.58 -7.077,-7.962 z"
   id="path1"
   style="stroke:#7e7e7e;stroke-width:7.45;stroke-dasharray:none;stroke-opacity:1" />
</g>
</svg>
